# xmcd
#
# Track frame offsets: 
#        150
#        16238
#        34689
#        54747
#        74080
#        90815
#
# Disc length: 1548 seconds
#
# Revision: 0
# Processed by: cddbd v1.5.2PL0 Copyright (c) Steve Scherf et al.
# Submitted via: ExactAudioCopyFreeDBPlugin 1.0
#
DISCID=45060a06
DTITLE=Carpenter Brut - Trilogy ††
DYEAR=2017
DGENRE=Blues
TTITLE0=Roller Mobster
TTITLE1=Meet Matt Stryker
TTITLE2=Obituary
TTITLE3=Looking For Tracy Tzu
TTITLE4=Sexkiller On The Loose
TTITLE5=Hang'em All
EXTD=
EXTT0=
EXTT1=
EXTT2=
EXTT3=
EXTT4=
EXTT5=
PLAYORDER=
